<svg xmlns="http://www.w3.org/2000/svg" width="385" height="245">
  <g fill="none" fill-rule="evenodd">
    <text fill="#FFF" font-family="Helvetica Neue, Arial, sans-serif" font-size="10" font-weight="300" opacity=".5">
      <tspan x="0" y="207">6:00 PM</tspan>
    </text>
    <text fill="#FFF" font-family="Helvetica Neue, Arial, sans-serif" font-size="10" font-weight="300" opacity=".5">
      <tspan x="171.3" y="207">11:00 PM</tspan>
    </text>
    <text fill="#FFF" font-family="Helvetica Neue, Arial, sans-serif" font-size="10" font-weight="300" opacity=".5">
      <tspan x="343.1" y="207">4:00 AM</tspan>
    </text>
    <text fill="#FFF" font-family="Helvetica Neue, Arial, sans-serif" font-size="10" font-weight="300" opacity=".5">
      <tspan x="7" y="133">$350</tspan>
    </text>
    <text fill="#FFF" font-family="Helvetica Neue, Arial, sans-serif" font-size="10" font-weight="300" opacity=".5">
      <tspan x="7" y="88">$700</tspan>
    </text>
    <text fill="#FFF" font-family="Helvetica Neue, Arial, sans-serif" font-size="10" font-weight="300" opacity=".5">
      <tspan x="7" y="15">$1,000</tspan>
    </text>
    <text fill="#FFF" font-family="Helvetica Neue, Arial, sans-serif" font-size="12" font-weight="300">
      <tspan x="20" y="242">DeFi yield</tspan>
    </text>
    <text fill="#FFF" font-family="Helvetica Neue, Arial, sans-serif" font-size="12" font-weight="300">
      <tspan x="109" y="242">% of Loan Issuance</tspan>
    </text>
    <circle cx="7" cy="238" r="5" fill="#D93CEF"/>
    <circle cx="96" cy="238" r="5" fill="#594CF2"/>
    <text fill="#FFF" font-family="Helvetica Neue, Arial, sans-serif" font-size="12" font-weight="300">
      <tspan x="250" y="242">AKRO Incentives</tspan>
    </text>
    <circle cx="237" cy="238" r="5" fill="#4CE6F2"/>
    <path fill="#D93CEF" fill-opacity=".7" d="M0 192c25.5-45.4 55.5-72.7 89.9-82.2 51.6-14.1 62.6 30.3 104.8-7.6C237 64.3 276 146 307.4 92.3 328.4 56.6 354 35.5 384 29v163"/>
    <path fill="#4CE6F2" fill-opacity=".7" d="M2 189.4c.6-1 1.3-1.9 2-2.6 28.5-33.5 55.8-51.2 81.6-53.4 40.2-3.4 68.6 29.3 97.4 29.3 28.9 0 38.7-33.7 95.3-33.7 56.6 0 61.8-49.4 74.3-63.5a29 29 0 0 1 31.4-9.2V192"/>
    <path fill="#594CF2" fill-opacity=".7" d="M1 191c19.2-20.4 37.1-30.7 53.9-30.7 25 0 54.8 22.5 73.4 9.7 18.6-12.7 21.9-40.2 53.8-89.6 32-49.4 67-30.4 95-10.1 28 20.3 51.3 19 64.9-20.2 9-26 23-36.3 42-30.6V191"/>
    <path stroke="#FFF" d="M1 1h383.4" opacity=".1"/>
    <path stroke="#FFF" d="M.5.7v190.8m.5 1h382"/>
    <path stroke="#FFF" d="M1 121.5h383M1 74.5h383" opacity=".1"/>
  </g>
</svg>
